<svg xmlns="http://www.w3.org/2000/svg" width="124.495" height="124.495" viewBox="0 0 124.495 124.495">
    <defs>
        <style>
            .cls-1{fill:#424448}.cls-2{fill:#c80029}.cls-4{fill:#fff}
        </style>
    </defs>
    <g id="img_Emblem_" transform="translate(-358.697 -330.584)">
        <g id="그룹_399">
            <path id="사각형_694" d="M0 0H62.247V46.686H0z" class="cls-1" transform="translate(358.698 330.585)"/>
            <path id="사각형_695" d="M0 0H62.247V46.686H0z" class="cls-2" transform="translate(358.698 408.394)"/>
            <g id="그룹_398">
                <path id="사각형_696" d="M0 0H62.248V46.686H0z" class="cls-2" transform="translate(420.945 330.585)"/>
                <path id="사각형_697" d="M0 0H62.248V46.686H0z" class="cls-1" transform="translate(420.945 408.394)"/>
                <path id="사각형_698" d="M0 0H124.495V31.124H0z" transform="translate(358.697 377.27)"/>
                <path id="사각형_699" fill="none" d="M0 0H124.495V124.495H0z" transform="translate(358.697 330.584)"/>
            </g>
        </g>
        <g id="그룹_402">
            <g id="그룹_400">
                <path id="패스_2853" d="M380.527 387.216h2.514v4.893h1.233v-4.893h2.514v-.954h-6.26z" class="cls-4"/>
                <path id="패스_2854" d="M374.031 386.262l-2.692 5.847h1.243l.658-1.466.008-.017h2.83l.008.017.658 1.466H378l-2.692-5.847zm1.619 3.41h-1.974l.018-.041.943-2.1.026-.059.027.059.942 2.1z" class="cls-4"/>
                <path id="패스_2855" d="M393.615 392.109h1.19l2.022-5.848h-1.241l-1.352 4.15-.027.085-.028-.085-1.352-4.15H391.6l-1.352 4.15-.028.085-.027-.085-1.352-4.15H387.6l2.022 5.848h1.2l1.369-4.014.027-.08.027.08 1.369 4.014z" class="cls-4"/>
                <path id="패스_2856" d="M398.3 391.473a3.677 3.677 0 0 0 4.748 0 2.992 2.992 0 0 0 1.018-2.267 3.173 3.173 0 0 0-.874-2.179 3.675 3.675 0 0 0-5.036 0 3.176 3.176 0 0 0-.872 2.179 2.994 2.994 0 0 0 1.016 2.267zm2.374-4.4a2.185 2.185 0 0 1 2.17 2.138 2.05 2.05 0 0 1-.633 1.475 2.2 2.2 0 0 1-3.074 0 2.057 2.057 0 0 1-.632-1.475 2.185 2.185 0 0 1 2.171-2.143z" class="cls-4"/>
                <path id="패스_2857" d="M446 391.133v-4.872h-1.18v5.848h5.068v-.976H446z" class="cls-4"/>
                <path id="패스_2858" d="M433.011 391.155h-3.749v-1.669h3.53v-.954h-3.53V387.2h3.638v-.954h-4.819v5.864h4.929z" class="cls-4"/>
                <path id="패스_2859" d="M466.831 391.155h-.031v-1.669h3.53v-.954h-3.53V387.2h3.639v-.954h-4.819v5.864h4.928v-.954z" class="cls-4"/>
                <path id="패스_2860" d="M461.552 391.307h-.019a2.236 2.236 0 0 1-2.249-2.114 2.058 2.058 0 0 1 .6-1.486 2.251 2.251 0 0 1 1.612-.645h.017a2.949 2.949 0 0 1 2.1.879l.572-.9a4.075 4.075 0 0 0-2.681-1.014 3.749 3.749 0 0 0-2.275.823 2.975 2.975 0 0 0-1.153 2.373 3.26 3.26 0 0 0 3.326 3.118 3.782 3.782 0 0 0 2.833-1.063l-.613-.887a2.706 2.706 0 0 1-2.07.916z" class="cls-4"/>
                <path id="패스_2861" d="M438.995 390.2h2.049a3.171 3.171 0 0 0 1.652-.361 2.048 2.048 0 0 0 .023-3.239 3.186 3.186 0 0 0-1.667-.358h-3.319v5.877h1.262zm0-2.975h2.214a1.177 1.177 0 0 1 .723.24.934.934 0 0 1 .345.756 1 1 0 0 1-1.068 1h-2.214z" class="cls-4"/>
                <path id="패스_2862" d="M425.292 388.043l.008-.014h.071v4.081h1.18v-5.848h-1.49l-1.85 3.129-.025.042-.025-.042-1.855-3.129h-1.485v5.848H421v-4.081h.071l.008.014 1.781 2.922h.648z" class="cls-4"/>
                <path id="패스_2863" d="M407.973 391.357h-.073a4.238 4.238 0 0 1-2.391-.95l-.445 1.012a5.414 5.414 0 0 0 2.849.924 3.173 3.173 0 0 0 2.315-.748 1.633 1.633 0 0 0 .466-1.211c-.019-.82-.538-1.316-1.636-1.56-.24-.054-.643-.137-1-.209l-.51-.106c-.564-.118-1.114-.269-1.121-.7-.005-.375.408-.764 1.209-.783h.074a3.942 3.942 0 0 1 2.439.912l.481-.944a4.612 4.612 0 0 0-2.836-.968 3.063 3.063 0 0 0-2.111.8 1.541 1.541 0 0 0-.461 1.149c.032 1.245 1.439 1.583 3 1.846h.007c.613.1 1.246.209 1.268.7a.563.563 0 0 1-.175.423 1.917 1.917 0 0 1-1.349.413z" class="cls-4"/>
                <path id="패스_2864" d="M453.661 386.262l-2.692 5.847h1.243l.658-1.466.008-.017h2.831l.007.017.658 1.466h1.26l-2.692-5.847zm1.619 3.41h-1.974l.019-.041.942-2.1.026-.059.027.059.942 2.1z" class="cls-4"/>
                <path id="패스_2865" d="M417.654 387.027a3.675 3.675 0 0 0-5.036 0 3.175 3.175 0 0 0-.872 2.179 2.994 2.994 0 0 0 1.016 2.267 3.677 3.677 0 0 0 4.748 0 2.992 2.992 0 0 0 1.018-2.267 3.173 3.173 0 0 0-.874-2.179zm-.981 3.654a2.2 2.2 0 0 1-3.074 0 2.057 2.057 0 0 1-.632-1.475 2.17 2.17 0 0 1 4.339 0 2.05 2.05 0 0 1-.633 1.475z" class="cls-4"/>
            </g>
            <g id="그룹_401">
                <path id="패스_2866" d="M395.166 395.825a1.908 1.908 0 1 0 0 3.815 1.819 1.819 0 0 0 1.52-.745l.024-.036-.539-.394-.009-.006-.026.038a1.147 1.147 0 0 1-.97.5 1.261 1.261 0 0 1 0-2.522 1.159 1.159 0 0 1 .972.5l.026.036.553-.366.008-.006-.022-.037a1.777 1.777 0 0 0-1.537-.777z" class="cls-4"/>
                <path id="패스_2867" d="M399.258 395.825a1.908 1.908 0 1 0 1.938 1.908 1.859 1.859 0 0 0-1.938-1.908zm0 3.169a1.261 1.261 0 1 1 1.236-1.261 1.195 1.195 0 0 1-1.236 1.261z" class="cls-4"/>
                <path id="패스_2868" d="M402.079 399.574h.674v-1.534h1.877v-.64h-1.877v-.87h2v-.639h-2.67z" class="cls-4"/>
                <path id="패스_2869" d="M405.631 399.574h.674v-1.534h1.877v-.64h-1.877v-.87h2v-.639h-2.67z" class="cls-4"/>
                <path id="패스_2870" d="M409.858 398.037h1.891v-.637h-1.891v-.877h2.019v-.634h-2.693v3.682h2.786v-.634h-2.112z" class="cls-4"/>
                <path id="패스_2871" d="M413.565 398.037h1.89v-.637h-1.89v-.877h2.019v-.634h-2.693v3.682h2.786v-.634h-2.111z" class="cls-4"/>
                <path id="패스_2872" d="M420.506 398.652c.022-.033.047-.07.069-.107l.476-.74.006-.009-.507-.315h-.009l-.492.758-.591-.563a1.291 1.291 0 0 0 .66-.957.92.92 0 0 0-1.04-.886.949.949 0 0 0-1.044.9 1.229 1.229 0 0 0 .465.909 1.325 1.325 0 0 0-.62 1.005c0 .621.424.992 1.135.992a1.463 1.463 0 0 0 1.094-.472l.426.405h.911l-.95-.909zm-1.428-2.226c.237 0 .373.114.373.314 0 .184-.2.357-.425.518-.258-.251-.318-.344-.318-.492a.324.324 0 0 1 .37-.34zm-.031 2.616c-.295 0-.494-.166-.494-.414a.836.836 0 0 1 .381-.574l.734.7a.779.779 0 0 1-.621.288z" class="cls-4"/>
                <path id="패스_2873" d="M424.613 395.892h-1.481v3.682h1.481a1.843 1.843 0 1 0 0-3.682zm0 3.043h-.807v-2.4h.807a1.2 1.2 0 1 1 0 2.4z" class="cls-4"/>
                <path id="패스_2874" d="M428.092 398.037h1.89v-.637h-1.89v-.877h2.019v-.634h-2.693v3.682h2.782v-.634h-2.112z" class="cls-4"/>
                <path id="패스_2875" d="M432.718 397.429l-.25-.033c-.512-.073-.712-.2-.712-.436 0-.3.3-.491.768-.491a1.832 1.832 0 0 1 .99.3l.039.025.339-.537.005-.008-.037-.025a2.333 2.333 0 0 0-1.331-.4c-.88 0-1.471.469-1.471 1.167 0 .73.6.967 1.111 1.037l.281.039c.543.073.775.2.775.44 0 .286-.329.486-.8.486a1.8 1.8 0 0 1-1.1-.384l-.038-.035-.365.531-.005.007.03.027a2.406 2.406 0 0 0 1.483.493c1.032 0 1.494-.591 1.494-1.177s-.407-.918-1.206-1.026z" class="cls-4"/>
                <path id="패스_2876" d="M436.4 397.429l-.25-.033c-.512-.073-.712-.2-.712-.436 0-.3.3-.491.768-.491a1.832 1.832 0 0 1 .99.3l.039.025.339-.537.006-.008-.038-.025a2.333 2.333 0 0 0-1.331-.4c-.88 0-1.471.469-1.471 1.167 0 .73.605.967 1.111 1.037l.282.039c.542.073.774.2.774.44 0 .286-.329.486-.8.486a1.8 1.8 0 0 1-1.1-.384l-.039-.035-.364.531-.005.007.03.027a2.406 2.406 0 0 0 1.483.493c1.032 0 1.494-.591 1.494-1.177s-.406-.918-1.206-1.026z" class="cls-4"/>
                <path id="패스_2877" d="M439.158 398.037h1.89v-.637h-1.89v-.877h2.019v-.634h-2.693v3.682h2.785v-.634h-2.112z" class="cls-4"/>
                <path id="패스_2878" d="M445.049 396.976c0-.7-.47-1.084-1.325-1.084h-1.533v3.682h.674v-1.511h.552l.955 1.506v.005h.775l-1.021-1.552a1.059 1.059 0 0 0 .923-1.046zm-2.184.471v-.921h.843c.44 0 .644.143.644.45s-.2.471-.644.471z" class="cls-4"/>
                <path id="패스_2879" d="M445.648 396.531h1.17v3.043h.674v-3.043h1.17v-.639h-3.013z" class="cls-4"/>
            </g>
        </g>
    </g>
</svg>
