<svg xmlns="http://www.w3.org/2000/svg" width="24.001" height="15" viewBox="0 0 24.001 15">
    <defs>
        <style>
            .cls-1{fill:#fff}.cls-2,.cls-3{stroke:none}.cls-3{fill:#010101}
        </style>
    </defs>
    <g id="ico_coupon" transform="translate(.001 -3)">
        <g id="빼기_1" class="cls-1">
            <path d="M22 14.5H2c-.828 0-1.5-.673-1.5-1.5V2C.5 1.174 1.171.5 2 .5h20c.827 0 1.5.673 1.5 1.5v3.564c-.861.223-1.5 1.007-1.5 1.937 0 .93.639 1.714 1.5 1.937V13c0 .826-.673 1.5-1.5 1.5z" class="cls-2" transform="translate(0 3)"/>
            <path d="M22 14c.552 0 1-.448 1-1V9.793c-.881-.387-1.5-1.268-1.5-2.291s.618-1.904 1.5-2.291V2c0-.551-.448-1-1-1H2c-.552 0-1 .449-1 1v11c0 .552.448 1 1 1h20m0 1H2c-1.103 0-2-.897-2-2V2C0 .899.896 0 2 0h20c1.103 0 2 .898 2 2v4c-.828.001-1.5.674-1.5 1.5 0 .828.674 1.5 1.5 1.5v4c0 1.103-.897 2-2 2z" class="cls-3" transform="translate(0 3)"/>
        </g>
        <g id="합치기_1" class="cls-1">
            <path d="M.734 6.851C.605 6.851.5 6.746.5 6.616s.105-.234.234-.234c.13 0 .236.105.236.234 0 .13-.106.235-.236.235zm0-2.94C.605 3.91.5 3.805.5 3.676c0-.13.105-.235.234-.235.13 0 .236.105.236.235s-.106.235-.236.235zm0-2.94C.605.97.5.865.5.735S.605.5.734.5C.864.5.97.606.97.735c0 .13-.106.236-.236.236z" class="cls-2" transform="translate(16.172 6.676)"/>
            <path d="M.734 7.351C.33 7.351 0 7.021 0 6.616c0-.406.329-.734.734-.734.406 0 .736.328.736.734 0 .406-.33.735-.736.735zm0-2.94C.33 4.41 0 4.08 0 3.676c0-.406.329-.735.734-.735.406 0 .736.329.736.735 0 .406-.33.735-.736.735zm0-2.94C.33 1.47 0 1.14 0 .735 0 .33.329 0 .734 0c.406 0 .736.33.736.735 0 .406-.33.736-.736.736z" class="cls-3" transform="translate(16.172 6.676)"/>
        </g>
    </g>
</svg>
