<svg xmlns="http://www.w3.org/2000/svg" id="ico_member" width="24" height="24.622" viewBox="0 0 24 24.622">
    <defs>
        <style>
            .cls-5{stroke:none}
        </style>
    </defs>
    <g id="그룹_400" transform="translate(2 1)">
        <g id="패스_2479" fill="#fff">
            <path d="M17.56 11.311H.687c-.636 0-1.156-.502-1.186-1.13L1.17 3.504c.273-.933.636-1.66 1.078-2.162C2.748.776 3.34.5 4.062.5h10.124c1.424 0 2.29.899 2.891 3.004l1.67 6.676c-.03.629-.55 1.131-1.187 1.131z" class="cls-5" transform="translate(1 11.811)"/>
            <path fill="#010101" d="M4.062 1c-.577 0-1.034.214-1.44.673-.39.445-.717 1.105-.97 1.963L.008 10.22c.047.334.334.591.68.591H17.56c.347 0 .634-.257.681-.59l-1.647-6.587C15.93 1.319 15.044 1 14.186 1H4.062m0-1h10.124c1.864 0 2.792 1.334 3.374 3.375l1.688 6.749c0 .932-.756 1.687-1.688 1.687H.687c-.932 0-1.687-.755-1.687-1.687l1.687-6.75C1.212 1.575 2.198 0 4.062 0z" transform="translate(1 11.811)"/>
        </g>
        <g id="타원_69" fill="#fff" stroke="#010101" transform="translate(5)">
            <circle cx="5" cy="5" r="5" class="cls-5"/>
            <circle cx="5" cy="5" r="4.5" fill="none"/>
        </g>
        <path id="패스_2887" fill="none" stroke="#010101" d="M36.785 267.679l2.24 2.3 3.875-4.239" transform="translate(-29.721 -250.144)"/>
    </g>
</svg>
