<svg xmlns="http://www.w3.org/2000/svg" width="72" height="72" viewBox="0 0 72 72">
    <g transform="translate(-8 -69)">
        <circle cx="36" cy="36" r="36" transform="translate(8 69)"/>
        <path fill="#fff" d="M540.3 918c6.4 0 9.239 2.62 9.239 6.839a5.523 5.523 0 0 1-3.165 5.019 5.571 5.571 0 0 1 3.641 5.122c0 4.218-2.807 6.839-9.1 6.839h-11.3V918zm-4.22 5.273v3.965h4.066c1.786 0 2.688-.664 2.688-1.991 0-1.311-.9-1.975-2.671-1.975zm0 9.206v4.082l4.475.017c1.855 0 2.807-.681 2.807-2.059 0-1.344-.953-2.041-2.807-2.041z" transform="translate(-495.818 -824.411)"/>
    </g>
</svg>
