<svg xmlns="http://www.w3.org/2000/svg" width="22" height="23.999" viewBox="0 0 22 23.999">
    <g>
        <g>
            <path fill="#29cc5e" d="M63.828 8.267C61.006 6.7 56.477 4.192 49.451.295A1.707 1.707 0 0 0 47.962.1l11.915 11.927z" transform="translate(0 .001) translate(-46.814 -.012)"/>
            <path fill="#32bbff" d="M24.7 1.93a1.719 1.719 0 0 0-.254.108 1.674 1.674 0 0 0-.894 1.489V24.15a1.674 1.674 0 0 0 .894 1.489 1.74 1.74 0 0 0 .254.108l11.939-11.909z" transform="translate(0 .001) translate(-23.549 -1.84)"/>
            <path fill="#ef5031" d="M59.9 256l-11.944 11.923a1.689 1.689 0 0 0 1.49-.193c6.813-3.78 11.291-6.261 14.145-7.839l.234-.13z" transform="translate(0 .001) translate(-46.809 -244.016)"/>
        </g>
        <path fill="#ffd500" d="M303.21 176.677a1.537 1.537 0 0 0-.937-1.3s-.866-.538-4.078-2.375l-3.922 3.781 3.922 3.75c3.177-1.824 4.172-2.414 4.172-2.414a1.628 1.628 0 0 0 .843-1.442z" transform="translate(-281.21 -164.778)"/>
    </g>
</svg>
