<svg xmlns="http://www.w3.org/2000/svg" id="img_apple" width="19" height="24" viewBox="0 0 19 24">
    <defs>
        <style>
            .cls-1{fill:#010101;fill-rule:evenodd}
        </style>
    </defs>
    <path id="패스_21" d="M613.381 329.472c-1.2-1.2-2.238-2.35-4.439-2.47-1.775-.08-2.586 1.036-4.245 1.076-1.544.04-1.428-1.235-4.632-.877-2.779.319-5.211 3.188-5.018 7.211.193 4.343 3.126 10.359 5.866 10.359 1.93-.04 2.393-1 3.976-1 1.968 0 2.432 1.195 3.975.956 2.663-.4 5.172-4.741 5.172-6.135a5.506 5.506 0 0 1-3.126-4.422 5.392 5.392 0 0 1 2.471-4.698z" class="cls-1" transform="translate(-595.037 -320.771)"/>
    <path id="패스_22" d="M680.169 284.614a4.975 4.975 0 0 1 4.381-5.242c.411 2.509-1.65 5.392-4.381 5.242z" class="cls-1" transform="translate(-670.963 -279.372)"/>
</svg>
